<?xml version="1.0" standalone="no"?>
<!DOCTYPE svg PUBLIC "-//W3C//DTD SVG 20010904//EN"
 "http://www.w3.org/TR/2001/REC-SVG-20010904/DTD/svg10.dtd">
<svg version="1.0" xmlns="http://www.w3.org/2000/svg"
 width="907.000000pt" height="907.000000pt" viewBox="0 0 907.000000 907.000000"
 preserveAspectRatio="xMidYMid meet">
<metadata>
Created by potrace 1.14, written by Peter Selinger 2001-2017
</metadata>
<g transform="translate(0.000000,907.000000) scale(0.100000,-0.100000)"
fill="#000000" stroke="none">
<path d="M4325 8948 c-363 -38 -710 -176 -985 -391 -76 -60 -248 -230 -307
-302 -89 -111 -200 -289 -361 -575 -14 -25 -35 -61 -47 -80 -12 -19 -24 -42
-28 -50 -4 -8 -11 -22 -17 -30 -17 -26 -130 -222 -130 -225 0 -2 -26 -47 -58
-102 -32 -54 -70 -118 -84 -143 -14 -25 -67 -117 -118 -205 -132 -226 -142
-245 -136 -245 3 0 328 88 721 195 394 107 719 195 723 195 5 0 13 -19 19 -42
21 -77 262 -960 298 -1088 19 -69 40 -146 47 -172 7 -27 15 -48 18 -48 3 0
117 195 254 433 315 545 398 688 401 685 1 -2 36 -61 77 -133 42 -71 85 -146
97 -165 11 -19 24 -42 28 -50 4 -8 33 -59 65 -113 32 -53 58 -100 58 -102 0
-3 18 -34 40 -69 22 -35 40 -66 40 -71 0 -4 8 -19 19 -33 15 -23 244 -417 316
-546 13 -23 50 -87 84 -144 34 -57 61 -107 61 -111 0 -3 -108 -69 -240 -146
-132 -77 -240 -142 -240 -145 0 -3 48 -17 108 -32 110 -29 331 -87 602 -158
229 -61 493 -130 511 -135 9 -2 67 -17 130 -34 242 -64 277 -74 389 -103 116
-30 217 -56 390 -102 61 -16 97 -21 101 -15 3 6 32 110 63 232 32 122 66 251
77 286 11 35 21 76 24 90 3 14 25 103 50 196 51 190 53 198 59 223 4 15 22 86
76 287 10 39 35 131 54 205 19 74 42 162 51 195 9 33 30 112 47 175 16 63 39
149 50 190 11 41 22 83 24 93 2 10 6 27 9 37 4 13 -74 -28 -249 -130 -141 -82
-265 -154 -276 -160 -17 -9 -24 -2 -62 66 -24 41 -47 83 -53 92 -17 30 -102
175 -123 212 -10 19 -43 76 -72 125 -29 50 -64 110 -78 135 -14 25 -157 272
-317 550 -161 278 -302 522 -314 544 -12 21 -45 73 -73 115 -265 394 -658 674
-1106 785 -92 23 -212 46 -277 52 -76 8 -358 9 -430 2z"/>
<path d="M2690 6344 c-250 -69 -561 -153 -690 -188 -129 -35 -345 -94 -480
-131 -135 -37 -252 -69 -260 -70 -21 -5 -312 -85 -329 -91 -12 -4 266 -170
431 -258 20 -11 46 -27 58 -36 l23 -17 -56 -94 c-75 -128 -276 -475 -302 -524
-12 -22 -52 -91 -89 -153 -36 -62 -77 -132 -90 -155 -25 -46 -21 -39 -397
-689 -270 -466 -331 -580 -374 -694 -36 -94 -82 -250 -94 -321 -6 -32 -13 -68
-15 -80 -20 -98 -26 -346 -13 -468 34 -317 130 -591 302 -866 120 -191 315
-400 497 -535 248 -183 572 -307 913 -351 39 -5 2225 -13 2225 -9 0 4 -656
657 -941 937 l-239 235 504 510 504 509 -764 5 -764 5 121 210 c67 116 133
230 146 255 14 25 28 50 33 55 4 6 19 30 32 55 14 25 98 171 188 325 89 154
172 298 185 320 51 91 175 305 219 378 25 43 46 82 46 86 0 4 5 12 12 19 9 9
21 6 52 -10 23 -13 48 -28 56 -34 8 -6 40 -25 70 -41 30 -17 95 -53 143 -82
49 -28 90 -51 92 -51 3 0 26 -13 52 -30 26 -16 50 -30 54 -30 3 0 -7 46 -22
103 -16 56 -31 111 -34 122 -2 11 -16 63 -31 115 -14 52 -29 109 -34 125 -12
48 -328 1208 -366 1345 -19 69 -39 141 -44 160 -5 19 -19 67 -30 106 -11 39
-20 77 -20 85 -1 8 -6 26 -13 40 l-12 27 -455 -124z"/>
<path d="M7861 5073 c-5 -21 -35 -135 -66 -253 -31 -118 -70 -267 -87 -330
-16 -63 -42 -162 -57 -220 -16 -58 -50 -188 -76 -290 -27 -102 -51 -189 -55
-193 -4 -5 -50 3 -101 17 -52 13 -157 41 -234 61 -77 21 -180 48 -230 61 -49
13 -157 42 -240 63 -82 22 -269 71 -414 110 -146 39 -266 69 -268 68 -2 -3
120 -215 459 -802 61 -104 121 -208 133 -230 13 -22 59 -103 104 -180 44 -76
79 -141 77 -142 -2 -3 -1635 -6 -1786 -3 l-25 0 0 295 c0 163 -2 302 -5 310
-4 10 -267 -249 -780 -766 -426 -430 -792 -798 -813 -818 l-38 -37 721 -714
c909 -900 918 -910 924 -910 2 0 3 99 1 220 -2 121 0 220 3 221 4 0 522 2
1152 3 630 2 1165 6 1190 10 155 25 240 44 395 90 42 12 214 86 265 114 141
75 187 105 316 209 253 202 479 516 601 833 25 65 70 208 77 245 3 11 9 41 15
66 33 143 45 390 27 569 -17 176 -74 389 -154 570 -38 88 -257 483 -338 612
-13 21 -24 40 -24 43 0 3 -11 22 -23 43 -13 20 -94 159 -179 307 -86 149 -189
326 -228 395 -88 151 -98 168 -167 293 -30 53 -56 97 -59 97 -2 0 -8 -17 -13
-37z"/>
</g>
</svg>
